<svg width="31" height="31" viewBox="0 0 31 31" fill="none" xmlns="http://www.w3.org/2000/svg">
<path fill-rule="evenodd" clip-rule="evenodd" d="M15.9508 23.7063C13.2364 23.7063 10.4788 22.095 8.86937 19.9623C1.14796 19.9623 0.914551 30.9929 0.914551 30.9929H30.9851C30.9851 30.9929 31.5913 19.9134 22.908 19.9134C21.3004 22.0724 18.6651 23.7063 15.9508 23.7063Z" fill="#009186"/>
<path fill-rule="evenodd" clip-rule="evenodd" d="M22.4186 10.4828C22.4186 13.6565 19.5217 19.7252 15.9452 19.7252C12.3744 19.7252 9.47559 13.6546 9.47559 10.4828C9.47559 7.31105 12.3725 4.73599 15.9452 4.73599C19.5217 4.73787 22.4186 7.31293 22.4186 10.4828Z" fill="#009186"/>
<path fill-rule="evenodd" clip-rule="evenodd" d="M25.3062 7.74399C25.3062 7.14916 24.478 6.66916 23.4502 6.6654V5.43999C23.4502 5.2574 23.5199 0.982574 15.9679 0.982574C8.41963 0.982574 8.48928 5.2574 8.48928 5.43999V6.70869C8.47046 6.70869 8.4554 6.70305 8.43846 6.70305C7.41634 6.70305 6.59375 7.17552 6.59375 7.76093V12.9449C6.59375 13.5266 7.41822 14.0009 8.43846 14.0009C9.45869 14.0009 10.2869 13.5266 10.2869 12.9449V7.76093C10.2869 7.67999 10.2361 7.60657 10.206 7.53128V6.11763C10.206 5.98775 9.66387 2.7614 15.9679 2.7614C22.2737 2.7614 21.6187 5.98775 21.6187 6.11763V7.60657C21.6074 7.65363 21.5716 7.69505 21.5716 7.74399V13.0466C21.5716 13.6433 22.4055 14.127 23.4389 14.127C23.4615 14.127 23.4785 14.1195 23.501 14.1195V16.0565H21.6488V17.8823H25.325L25.3062 7.74399Z" fill="#009186"/>
</svg>
