<svg width="295" height="88" viewBox="0 0 295 88" fill="none" xmlns="http://www.w3.org/2000/svg">
<path fill-rule="evenodd" clip-rule="evenodd" d="M228.529 21.6932C223.319 19.8248 214.709 18.8736 206.928 17.8364C192.935 15.9699 177.46 14.5749 162.477 13.9797C153.569 13.6241 144.717 12.9844 138.388 13.6281C117.629 15.7364 93.0605 13.929 75.2397 18.1876C66.0679 20.3802 58.8402 23.513 51.565 26.6038C38.7167 32.0554 12.8158 45.5363 29.1302 60.9694C39.8357 71.0943 63.3116 75.0436 84.796 77.1013C128.322 81.2717 182.005 83.1357 226.866 78.5025C246.41 76.4868 272.936 72.649 282.946 62.7222C289.064 56.6583 287.465 47.6213 282.117 42.3842C273.969 34.4016 257.453 29.1203 245.559 25.2005C244.941 26.4146 246.747 27.5908 247.637 28.7078C255.059 38.0245 257.047 53.7169 243.066 57.8133C258.628 45.3153 243.226 26.9616 228.529 21.6932ZM37.0232 25.2005C24.7927 28.609 8.61357 32.3082 4.20696 42.3842C0.924478 49.8894 6.485 58.7856 9.60548 63.0734C5.18894 58.0554 -3.2281 48.5196 1.29817 38.1762C3.19992 33.8294 9.30655 28.8763 14.5906 26.2526C32.0766 17.5713 59.4277 14.6256 81.4737 9.0686C121.479 -1.01614 176.656 -2.52056 213.991 9.42017C219.098 11.0529 223.898 13.359 229.358 14.6803C251.936 20.1486 275.511 25.272 288.346 38.5275C291.63 41.913 294.956 47.5582 294.999 52.9044C295.073 63.061 287.271 68.9881 279.209 72.893C266.02 79.2833 246.855 82.7655 224.377 84.8169C185.642 88.3538 132.214 87.2743 93.5184 84.116C64.5083 81.7451 36.1937 78.5466 22.484 64.8283C17.0954 59.4355 13.9024 49.9167 17.9154 42.033C21.7435 34.5048 28.426 31.0835 37.0232 25.2005Z" fill="#009186"/>
</svg>
