<svg width="200" height="200" viewBox="0 0 200 200" fill="none" xmlns="http://www.w3.org/2000/svg">
<g opacity="0.8">
<path fill-rule="evenodd" clip-rule="evenodd" d="M105.941 148.165C88.9765 148.165 71.7412 138.094 61.6824 124.765C13.4235 124.765 11.9647 193.706 11.9647 193.706H199.906C199.906 193.706 203.694 124.459 149.424 124.459C139.376 137.953 122.906 148.165 105.941 148.165Z" fill="#707070"/>
<path fill-rule="evenodd" clip-rule="evenodd" d="M146.365 65.5177C146.365 85.353 128.259 123.282 105.906 123.282C83.5883 123.282 65.4706 85.3413 65.4706 65.5177C65.4706 45.6942 83.5765 29.6001 105.906 29.6001C128.259 29.6119 146.365 45.706 146.365 65.5177Z" fill="#707070"/>
<path fill-rule="evenodd" clip-rule="evenodd" d="M164.412 48.3999C164.412 44.6823 159.235 41.6823 152.812 41.6588V33.9999C152.812 32.8588 153.247 6.14111 106.047 6.14111C58.8706 6.14111 59.3059 32.8588 59.3059 33.9999V41.9293C59.1882 41.9293 59.0941 41.8941 58.9882 41.8941C52.6 41.8941 47.4588 44.847 47.4588 48.5058V80.9058C47.4588 84.5411 52.6117 87.5058 58.9882 87.5058C65.3647 87.5058 70.5412 84.5411 70.5412 80.9058V48.5058C70.5412 47.9999 70.2235 47.5411 70.0353 47.0705V38.2352C70.0353 37.4235 66.647 17.2588 106.047 17.2588C145.459 17.2588 141.365 37.4235 141.365 38.2352V47.5411C141.294 47.8352 141.071 48.0941 141.071 48.3999V81.5411C141.071 85.2705 146.282 88.2941 152.741 88.2941C152.882 88.2941 152.988 88.247 153.129 88.247V100.353H141.553V111.765H164.529L164.412 48.3999Z" fill="#707070"/>
</g>
</svg>
