<svg width="66" height="35" viewBox="0 0 66 35" fill="none" xmlns="http://www.w3.org/2000/svg">
<path d="M6.74996 28.5836H59.25C60.8541 28.5836 62.1666 29.8961 62.1666 31.5003C62.1666 33.1045 60.8541 34.417 59.25 34.417H6.74996C5.14579 34.417 3.83329 33.1045 3.83329 31.5003C3.83329 29.8961 5.14579 28.5836 6.74996 28.5836ZM5.29163 15.6628C6.34163 16.2753 7.68329 15.8961 8.29579 14.8461L9.66663 12.4544L11.0666 14.8753C11.6791 15.9253 13.0208 16.2753 14.0708 15.6919C15.1208 15.0794 15.4708 13.7669 14.8875 12.7169L13.4583 10.2669H16.2291C17.425 10.2669 18.4166 9.27528 18.4166 8.07945C18.4166 6.88361 17.425 5.89195 16.2291 5.89195H13.4583L14.8291 3.50028C15.4416 2.45028 15.0916 1.10861 14.0416 0.496113C13.5334 0.213187 12.9346 0.140229 12.3733 0.292825C11.8119 0.44542 11.3325 0.811471 11.0375 1.31278L9.66663 3.70445L8.29579 1.31278C8.00072 0.811471 7.52131 0.44542 6.95998 0.292825C6.39864 0.140229 5.79989 0.213187 5.29163 0.496113C4.24163 1.10861 3.89163 2.45028 4.50413 3.50028L5.87496 5.89195H3.10413C1.90829 5.89195 0.916626 6.88361 0.916626 8.07945C0.916626 9.27528 1.90829 10.2669 3.10413 10.2669H5.87496L4.47496 12.6878C3.89163 13.7378 4.24163 15.0794 5.29163 15.6628ZM28.625 15.6628C29.675 16.2753 31.0166 15.8961 31.6291 14.8461L33 12.4544L34.4 14.8753C35.0125 15.9253 36.3541 16.2753 37.4041 15.6919C38.4541 15.0794 38.8041 13.7669 38.2208 12.7169L36.8208 10.2961H39.5916C40.7875 10.2961 41.7791 9.30445 41.7791 8.10861C41.7791 6.91278 40.7875 5.92111 39.5916 5.92111H36.7916L38.1625 3.52945C38.4509 3.02536 38.53 2.4282 38.3828 1.8664C38.2355 1.3046 37.8736 0.823032 37.375 0.52528C37.1279 0.381612 36.855 0.288017 36.5718 0.24984C36.2886 0.211664 36.0006 0.229654 35.7243 0.302783C35.4481 0.375911 35.1889 0.502746 34.9617 0.676043C34.7344 0.84934 34.5436 1.06571 34.4 1.31278L33 3.70445L31.6291 1.31278C31.4866 1.06455 31.2963 0.847056 31.0692 0.672879C30.8421 0.498702 30.5827 0.371306 30.306 0.298065C30.0293 0.224825 29.7408 0.207196 29.4573 0.246198C29.1738 0.285199 28.9008 0.380057 28.6541 0.52528C27.6041 1.13778 27.2541 2.47945 27.8666 3.52945L29.2375 5.92111H26.4375C26.1516 5.91725 25.8678 5.97022 25.6025 6.07696C25.3373 6.1837 25.0959 6.34206 24.8924 6.54287C24.6889 6.74368 24.5273 6.98292 24.417 7.2467C24.3067 7.51048 24.2499 7.79354 24.25 8.07945C24.25 9.27528 25.2416 10.2669 26.4375 10.2669H29.2083L27.8083 12.6878C27.225 13.7378 27.575 15.0794 28.625 15.6628ZM65.0833 8.07945C65.0833 6.88361 64.0916 5.89195 62.8958 5.89195H60.125L61.4958 3.50028C61.7843 2.9962 61.8634 2.39904 61.7161 1.83723C61.5688 1.27543 61.2069 0.793865 60.7083 0.496113C60.4613 0.352445 60.1883 0.258851 59.9051 0.220674C59.6219 0.182498 59.3339 0.200487 59.0577 0.273615C58.7814 0.346744 58.5223 0.473579 58.295 0.646876C58.0678 0.820173 57.8769 1.03654 57.7333 1.28361L56.3333 3.70445L54.9625 1.31278C54.82 1.06455 54.6297 0.847056 54.4025 0.672879C54.1754 0.498702 53.916 0.371306 53.6393 0.298065C53.3626 0.224825 53.0742 0.207196 52.7906 0.246198C52.5071 0.285199 52.2341 0.380057 51.9875 0.52528C50.9375 1.13778 50.5875 2.47945 51.2 3.52945L52.5708 5.92111H49.8C49.512 5.91452 49.2255 5.96541 48.9574 6.07082C48.6894 6.17622 48.445 6.33401 48.2386 6.53498C48.0322 6.73594 47.8679 6.97604 47.7554 7.24123C47.6429 7.50642 47.5844 7.79138 47.5833 8.07945C47.5833 9.27528 48.575 10.2669 49.7708 10.2669H52.5416L51.1416 12.6878C50.9968 12.936 50.903 13.2106 50.8657 13.4955C50.8284 13.7804 50.8483 14.0699 50.9244 14.347C51.0005 14.6241 51.1311 14.8832 51.3086 15.1092C51.4862 15.3351 51.707 15.5233 51.9583 15.6628C53.0083 16.2753 54.35 15.8961 54.9625 14.8461L56.3333 12.4544L57.7333 14.8753C58.3458 15.9253 59.6875 16.2753 60.7375 15.6919C61.7875 15.0794 62.1375 13.7669 61.5541 12.7169L60.1541 10.2961H62.925C64.0916 10.2669 65.0833 9.27528 65.0833 8.07945Z" fill="#2B7C85"/>
</svg>
