<svg width="17" height="20" viewBox="0 0 17 20" fill="none" xmlns="http://www.w3.org/2000/svg">
<path d="M10.5 0H0.5V20H16.5V6L10.5 0ZM12.5 13C12.5 15.21 10.71 17 8.5 17C6.29 17 4.5 15.21 4.5 13V7.5C4.5 6.83696 4.76339 6.20107 5.23223 5.73223C5.70107 5.26339 6.33696 5 7 5C7.66304 5 8.29893 5.26339 8.76777 5.73223C9.23661 6.20107 9.5 6.83696 9.5 7.5V13H7.5V7.5C7.5 7.22 7.28 7 7 7C6.72 7 6.5 7.22 6.5 7.5V13C6.5 14.1 7.4 15 8.5 15C9.6 15 10.5 14.1 10.5 13V9H12.5V13ZM10.5 6V2L14.5 6H10.5Z" fill="#87ACA3"/>
</svg>
