<svg width="28" height="34" viewBox="0 0 28 34" fill="none" xmlns="http://www.w3.org/2000/svg">
<path d="M24.0003 33.6666H4.00033C3.11627 33.6666 2.26842 33.3154 1.6433 32.6903C1.01818 32.0652 0.666992 31.2173 0.666992 30.3333V3.66659C0.666992 2.78253 1.01818 1.93469 1.6433 1.30956C2.26842 0.684443 3.11627 0.333254 4.00033 0.333254H15.667C15.6819 0.331298 15.6971 0.331298 15.712 0.333254H15.722C15.7377 0.338173 15.7539 0.341523 15.7703 0.343254C15.917 0.353254 16.062 0.381587 16.202 0.428254H16.272C16.3028 0.449785 16.3317 0.473751 16.3587 0.49992C16.5402 0.580658 16.7057 0.69359 16.847 0.833254L26.847 10.8333C26.9867 10.9746 27.0996 11.14 27.1803 11.3216C27.1948 11.3576 27.2076 11.3943 27.2187 11.4316L27.2353 11.4783C27.282 11.6166 27.3087 11.7616 27.317 11.9083C27.3184 11.9249 27.3224 11.9411 27.3287 11.9566V11.9666C27.3313 11.9775 27.333 11.9887 27.3337 11.9999V30.3333C27.3337 31.2173 26.9825 32.0652 26.3573 32.6903C25.7322 33.3154 24.8844 33.6666 24.0003 33.6666ZM18.0403 20.3333V28.6666H19.607V25.2666H22.0403V23.8699H19.607V21.7349H22.3337V20.3333H18.0403ZM11.8737 20.3333V28.6666H13.8837C14.3 28.6872 14.7156 28.614 15.0998 28.4524C15.4841 28.2909 15.8271 28.0451 16.1037 27.7333C16.6785 26.9998 16.9664 26.082 16.9137 25.1516V23.8016C16.9524 22.881 16.6564 21.9774 16.0803 21.2583C15.5387 20.6416 14.747 20.3016 13.9253 20.3333H11.8737ZM5.66699 20.3333V28.6666H7.23366V25.7349H8.27699C8.97366 25.7733 9.65366 25.5149 10.1503 25.0249C10.6235 24.4954 10.869 23.8008 10.8337 23.0916C10.8646 22.3653 10.6192 21.6543 10.147 21.1016C9.91629 20.8458 9.6318 20.6442 9.31396 20.5113C8.99611 20.3785 8.6528 20.3177 8.30866 20.3333H5.66699ZM15.667 3.66659V11.9999H24.0003L15.667 3.66659ZM13.9103 27.2699H13.4403V21.7349H14.0103C14.2095 21.7232 14.4085 21.7616 14.589 21.8466C14.7695 21.9316 14.9258 22.0605 15.0437 22.2216C15.2887 22.7266 15.3937 23.2883 15.347 23.8483V25.2966C15.3837 25.8299 15.2687 26.3633 15.0137 26.8316C14.8791 26.9887 14.7083 27.1106 14.5161 27.187C14.3239 27.2634 14.116 27.2918 13.9103 27.2699ZM8.30866 24.3333H7.23199V21.7349H8.32366C8.45773 21.7364 8.58923 21.7718 8.70584 21.838C8.82244 21.9042 8.92033 21.9989 8.99033 22.1133C9.17033 22.4116 9.25699 22.7549 9.24032 23.1033C9.26122 23.4274 9.17515 23.7494 8.99533 24.0199C8.9136 24.1225 8.80882 24.2043 8.6895 24.2588C8.57018 24.3132 8.4397 24.3387 8.30866 24.3333Z" fill="#2B7C85"/>
</svg>
