<svg width="32" height="32" viewBox="0 0 32 32" fill="none" xmlns="http://www.w3.org/2000/svg">
<path d="M15.9999 3.20001C10.6979 3.20001 6.39985 7.49808 6.39985 12.8V18.5373L5.26848 19.6686C4.81088 20.1262 4.67399 20.8144 4.92164 21.4123C5.16929 22.0102 5.75271 22.4 6.39985 22.4H25.5999C26.247 22.4 26.8304 22.0102 27.0781 21.4123C27.3257 20.8144 27.1888 20.1262 26.7312 19.6686L25.5999 18.5373V12.8C25.5999 7.49808 21.3018 3.20001 15.9999 3.20001Z" fill="#009186"/>
<path d="M15.9998 28.8C13.3488 28.8 11.1998 26.651 11.1998 24H20.7998C20.7998 26.651 18.6508 28.8 15.9998 28.8Z" fill="#009186"/>
</svg>
