<svg width="56" height="56" viewBox="0 0 56 56" fill="none" xmlns="http://www.w3.org/2000/svg">
<rect x="1.5" y="1.5" width="53" height="53" stroke="white" stroke-width="3"/>
<path d="M15.1012 45.492C13.1605 45.492 11.3702 45.1367 9.73018 44.426C8.11751 43.688 6.79185 42.6493 5.75318 41.31L9.44318 36.882C10.2358 37.9207 11.0695 38.7133 11.9442 39.26C12.8188 39.7793 13.7618 40.039 14.7732 40.039C17.4792 40.039 18.8322 38.4537 18.8322 35.283V21.63H8.74618V16.3H25.4332V34.914C25.4332 38.4673 24.5585 41.1187 22.8092 42.868C21.0598 44.6173 18.4905 45.492 15.1012 45.492Z" fill="white"/>
<path d="M33.3891 30L28.8091 16H32.1691L36.1491 28.4H34.4691L38.6291 16H41.6291L45.6291 28.4H44.0091L48.0891 16H51.1891L46.6091 30H43.1291L39.5891 19.12H40.5091L36.8691 30H33.3891Z" fill="white"/>
</svg>
