<svg width="24" height="26" viewBox="0 0 24 26" fill="none" xmlns="http://www.w3.org/2000/svg">
<path d="M11.9999 0.200012C6.69792 0.200012 2.39985 4.49808 2.39985 9.80001V15.5373L1.26848 16.6686C0.810884 17.1262 0.673995 17.8144 0.921644 18.4123C1.16929 19.0102 1.75271 19.4 2.39985 19.4H21.5999C22.247 19.4 22.8304 19.0102 23.0781 18.4123C23.3257 17.8144 23.1888 17.1262 22.7312 16.6686L21.5999 15.5373V9.80001C21.5999 4.49808 17.3018 0.200012 11.9999 0.200012Z" fill="#009186"/>
<path d="M11.9998 25.8C9.34884 25.8 7.1998 23.651 7.1998 21H16.7998C16.7998 23.651 14.6508 25.8 11.9998 25.8Z" fill="#009186"/>
</svg>
