<svg width="32" height="32" viewBox="0 0 32 32" fill="none" xmlns="http://www.w3.org/2000/svg">
<path fill-rule="evenodd" clip-rule="evenodd" d="M12.8002 6.40001C9.26557 6.40001 6.4002 9.26539 6.4002 12.8C6.4002 16.3346 9.26557 19.2 12.8002 19.2C16.3348 19.2 19.2002 16.3346 19.2002 12.8C19.2002 9.26539 16.3348 6.40001 12.8002 6.40001ZM3.2002 12.8C3.2002 7.49808 7.49826 3.20001 12.8002 3.20001C18.1021 3.20001 22.4002 7.49808 22.4002 12.8C22.4002 14.8733 21.7429 16.7932 20.6254 18.3625L28.3316 26.0686C28.9564 26.6935 28.9564 27.7065 28.3316 28.3314C27.7067 28.9562 26.6937 28.9562 26.0688 28.3314L18.3627 20.6252C16.7933 21.7427 14.8735 22.4 12.8002 22.4C7.49826 22.4 3.2002 18.1019 3.2002 12.8Z" fill="#87ACA3"/>
</svg>
