<svg width="53" height="45" viewBox="0 0 53 45" fill="none" xmlns="http://www.w3.org/2000/svg">
<path d="M25 37.5001C24.9986 34.5476 25.7448 31.6428 27.1689 29.0564C28.5931 26.4701 30.649 24.2864 33.1448 22.7091C35.6407 21.1317 38.4953 20.2119 41.4426 20.0355C44.3898 19.8591 47.3338 20.4317 50 21.7001V5.00012C50 2.25012 47.75 0.00012207 45 0.00012207H5C2.25 0.00012207 0 2.25012 0 5.00012V35.0001C0 37.7501 2.25 40.0001 5 40.0001H25.2C25.075 39.1751 25 38.3501 25 37.5001ZM5 5.00012L25 17.5001L45 5.00012V10.0001L25 22.5001L5 10.0001V5.00012ZM38.35 45.0001L29.5 36.1501L33.025 32.6251L38.325 37.9251L48.925 27.3251L52.5 30.8501L38.35 45.0001Z" fill="#2B7C85"/>
</svg>
