<svg width="184" height="184" viewBox="0 0 184 184" fill="none" xmlns="http://www.w3.org/2000/svg">
<circle opacity="0.1" cx="92" cy="92" r="92" fill="#D80010"/>
<path d="M111.08 85.6398C112.28 82.9998 113 80.1198 113 76.9998C113 65.4198 103.58 55.9998 92.0001 55.9998C88.8801 55.9998 86.0001 56.7198 83.3601 57.9198L111.08 85.6398Z" fill="#D80010"/>
<path d="M92 31.9998C58.88 31.9998 32 58.8798 32 91.9997C32 125.12 58.88 152 92 152C125.12 152 152 125.12 152 91.9997C152 58.8798 125.12 31.9998 92 31.9998ZM92 110C78.08 110 65.3 114.8 55.16 122.72C47.9415 114.112 43.9898 103.234 44 91.9997C44 80.8997 47.78 70.6997 54.14 62.5998L71.3 79.7598C71.8958 84.3089 73.9775 88.5338 77.2217 91.778C80.4659 95.0222 84.6909 97.1039 89.24 97.6997L102.44 110.9C99.02 110.3 95.54 110 92 110ZM129.86 121.4L62.6 54.1398C70.9812 47.5504 81.3387 43.9781 92 43.9998C118.52 43.9998 140 65.4798 140 91.9997C140 103.1 136.22 113.24 129.86 121.4Z" fill="#D80010"/>
</svg>
